<svg width="400" height="400" viewBox="0 0 400 400" fill="none" xmlns="http://www.w3.org/2000/svg">
<rect width="400" height="400" fill="white"/>
<path fill-rule="evenodd" clip-rule="evenodd" d="M149.391 205.64C162.399 226.509 167.721 252.029 166.922 267.634C166.922 267.728 166.926 267.823 166.93 267.918C166.934 268.013 166.938 268.108 166.938 268.203C166.649 303.173 138.224 331.289 103.448 330.998C68.6718 330.708 40.7139 302.123 41.0022 267.152C41.0022 266.306 41.0458 265.227 41.0893 264.571C41.1039 264.351 41.1251 264.12 41.1467 263.884C41.1895 263.419 41.2343 262.931 41.2343 262.457C41.337 261.217 41.5123 259.627 41.5803 259.012C41.6083 258.758 41.6181 258.669 41.5968 258.84C43.9752 235.813 56.5338 211.021 70.3832 196.438C70.5114 196.253 70.7646 196.207 70.9488 196.336C71.1331 196.465 71.1785 196.719 71.0504 196.905C69.3536 200.565 65.8297 211.079 70.7313 211.415C72.3701 211.415 73.1966 210.452 74.1683 208.498C75.333 206.126 76.4829 202.918 77.802 199.239C82.9703 184.821 90.7383 163.152 112.192 156.042C112.613 155.896 113.121 156.13 112.743 156.742C106.424 166.708 106.261 179.413 112.323 189.54C116.703 196.832 121.271 197.371 123.765 195.198C126.853 192.471 126.056 184.465 124.722 181.898C124.505 181.475 124.969 181.125 125.361 181.388C136.798 189.159 138.406 198.935 139.541 205.841C140.348 210.754 140.917 214.214 144.618 214.463C149.651 214.813 149.448 209.067 148.578 205.873C148.448 205.305 149.042 205.1 149.391 205.64ZM74.7625 267.445C74.6344 283.66 87.5973 296.912 103.721 297.049C111.475 297.115 118.937 294.078 124.462 288.607C129.987 283.135 133.121 275.679 133.175 267.882C133.287 251.667 120.31 238.429 104.186 238.309C88.0615 238.188 74.8908 251.231 74.7625 267.445Z" fill="#F04E23"/>
<path d="M358.875 251.642C358.875 295.553 323.267 331.138 279.331 331.138C255.824 331.138 234.706 320.927 220.143 304.719H266.074C273.393 304.719 279.333 298.782 279.333 291.467C279.333 284.079 273.393 278.141 266.074 278.141H204.307C204.261 278.021 204.221 277.895 204.181 277.762C202.782 273.648 201.677 269.335 200.877 264.889H235.687C242.999 264.889 248.939 258.951 248.939 251.643C248.939 244.327 242.999 238.39 235.687 238.39H200.877C201.664 233.97 202.775 229.611 204.214 225.517C204.254 225.397 204.3 225.271 204.347 225.144H266.075C273.394 225.144 279.334 219.207 279.334 211.892C279.334 204.583 273.394 198.646 266.075 198.646H220.064C225.306 192.815 231.379 187.757 238.105 183.669C250.132 176.354 264.244 172.141 279.334 172.141C323.267 172.141 358.877 207.725 358.877 251.641" fill="#FFBC00"/>
<path d="M17.6534 47.0682C17.4432 47.0682 17.2628 46.9929 17.1122 46.8423C16.9616 46.6918 16.8864 46.5114 16.8864 46.3011C16.8864 46.0909 16.9616 45.9105 17.1122 45.7599C17.2628 45.6094 17.4432 45.5341 17.6534 45.5341C17.8636 45.5341 18.044 45.6094 18.1946 45.7599C18.3452 45.9105 18.4205 46.0909 18.4205 46.3011C18.4205 46.4403 18.3849 46.5682 18.3139 46.6847C18.2457 46.8011 18.1534 46.8949 18.0369 46.9659C17.9233 47.0341 17.7955 47.0682 17.6534 47.0682ZM20.9581 47.0682C20.7479 47.0682 20.5675 46.9929 20.4169 46.8423C20.2663 46.6918 20.1911 46.5114 20.1911 46.3011C20.1911 46.0909 20.2663 45.9105 20.4169 45.7599C20.5675 45.6094 20.7479 45.5341 20.9581 45.5341C21.1683 45.5341 21.3487 45.6094 21.4993 45.7599C21.6499 45.9105 21.7251 46.0909 21.7251 46.3011C21.7251 46.4403 21.6896 46.5682 21.6186 46.6847C21.5504 46.8011 21.4581 46.8949 21.3416 46.9659C21.228 47.0341 21.1001 47.0682 20.9581 47.0682ZM24.2628 47.0682C24.0526 47.0682 23.8722 46.9929 23.7216 46.8423C23.571 46.6918 23.4957 46.5114 23.4957 46.3011C23.4957 46.0909 23.571 45.9105 23.7216 45.7599C23.8722 45.6094 24.0526 45.5341 24.2628 45.5341C24.473 45.5341 24.6534 45.6094 24.804 45.7599C24.9545 45.9105 25.0298 46.0909 25.0298 46.3011C25.0298 46.4403 24.9943 46.5682 24.9233 46.6847C24.8551 46.8011 24.7628 46.8949 24.6463 46.9659C24.5327 47.0341 24.4048 47.0682 24.2628 47.0682ZM29.4936 47.1364C28.88 47.1364 28.3516 46.9915 27.9084 46.7017C27.4652 46.4119 27.1243 46.0128 26.8857 45.5043C26.647 44.9957 26.5277 44.4148 26.5277 43.7614C26.5277 43.0966 26.6499 42.5099 26.8942 42.0014C27.1413 41.4901 27.4851 41.0909 27.9254 40.804C28.3686 40.5142 28.8857 40.3693 29.4766 40.3693C29.9368 40.3693 30.3516 40.4545 30.7209 40.625C31.0902 40.7955 31.3928 41.0341 31.6286 41.3409C31.8643 41.6477 32.0107 42.0057 32.0675 42.4148H31.0618C30.9851 42.1165 30.8146 41.8523 30.5504 41.6222C30.2891 41.3892 29.9368 41.2727 29.4936 41.2727C29.1016 41.2727 28.7578 41.375 28.4624 41.5795C28.1697 41.7812 27.9411 42.0668 27.7763 42.4361C27.6143 42.8026 27.5334 43.233 27.5334 43.7273C27.5334 44.233 27.6129 44.6733 27.772 45.0483C27.9339 45.4233 28.1612 45.7145 28.4538 45.9219C28.7493 46.1293 29.0959 46.233 29.4936 46.233C29.755 46.233 29.9922 46.1875 30.2053 46.0966C30.4183 46.0057 30.5987 45.875 30.7464 45.7045C30.8942 45.5341 30.9993 45.3295 31.0618 45.0909H32.0675C32.0107 45.4773 31.87 45.8253 31.6456 46.1349C31.424 46.4418 31.13 46.6861 30.7635 46.8679C30.3999 47.0469 29.9766 47.1364 29.4936 47.1364ZM36.1967 47.1364C35.6058 47.1364 35.0874 46.9957 34.6413 46.7145C34.1982 46.4332 33.8516 46.0398 33.6016 45.5341C33.3544 45.0284 33.2308 44.4375 33.2308 43.7614C33.2308 43.0795 33.3544 42.4844 33.6016 41.9759C33.8516 41.4673 34.1982 41.0724 34.6413 40.7912C35.0874 40.5099 35.6058 40.3693 36.1967 40.3693C36.7876 40.3693 37.3047 40.5099 37.7479 40.7912C38.1939 41.0724 38.5405 41.4673 38.7876 41.9759C39.0376 42.4844 39.1626 43.0795 39.1626 43.7614C39.1626 44.4375 39.0376 45.0284 38.7876 45.5341C38.5405 46.0398 38.1939 46.4332 37.7479 46.7145C37.3047 46.9957 36.7876 47.1364 36.1967 47.1364ZM36.1967 46.233C36.6456 46.233 37.0149 46.1179 37.3047 45.8878C37.5945 45.6577 37.8089 45.3551 37.9482 44.9801C38.0874 44.6051 38.157 44.1989 38.157 43.7614C38.157 43.3239 38.0874 42.9162 37.9482 42.5384C37.8089 42.1605 37.5945 41.8551 37.3047 41.6222C37.0149 41.3892 36.6456 41.2727 36.1967 41.2727C35.7479 41.2727 35.3786 41.3892 35.0888 41.6222C34.799 41.8551 34.5845 42.1605 34.4453 42.5384C34.3061 42.9162 34.2365 43.3239 34.2365 43.7614C34.2365 44.1989 34.3061 44.6051 34.4453 44.9801C34.5845 45.3551 34.799 45.6577 35.0888 45.8878C35.3786 46.1179 35.7479 46.233 36.1967 46.233ZM40.6978 47V40.4545H41.6694V41.4773H41.7546C41.891 41.1278 42.1112 40.8565 42.4151 40.6634C42.7191 40.4673 43.0842 40.3693 43.5103 40.3693C43.9421 40.3693 44.3015 40.4673 44.5884 40.6634C44.8782 40.8565 45.104 41.1278 45.266 41.4773H45.3342C45.5018 41.1392 45.7532 40.8707 46.0884 40.6719C46.4237 40.4702 46.8256 40.3693 47.2944 40.3693C47.8796 40.3693 48.3583 40.5526 48.7305 40.919C49.1026 41.2827 49.2887 41.8494 49.2887 42.6193V47H48.283V42.6193C48.283 42.1364 48.1509 41.7912 47.8867 41.5838C47.6225 41.3764 47.3114 41.2727 46.9535 41.2727C46.4933 41.2727 46.1367 41.4119 45.8839 41.6903C45.631 41.9659 45.5046 42.3153 45.5046 42.7386V47H44.4819V42.517C44.4819 42.1449 44.3612 41.8452 44.1197 41.6179C43.8782 41.3878 43.5671 41.2727 43.1864 41.2727C42.9251 41.2727 42.6808 41.3423 42.4535 41.4815C42.229 41.6207 42.0472 41.8139 41.908 42.0611C41.7717 42.3054 41.7035 42.5881 41.7035 42.9091V47H40.6978ZM51.8604 47.0682C51.6502 47.0682 51.4698 46.9929 51.3192 46.8423C51.1687 46.6918 51.0934 46.5114 51.0934 46.3011C51.0934 46.0909 51.1687 45.9105 51.3192 45.7599C51.4698 45.6094 51.6502 45.5341 51.8604 45.5341C52.0707 45.5341 52.2511 45.6094 52.4016 45.7599C52.5522 45.9105 52.6275 46.0909 52.6275 46.3011C52.6275 46.4403 52.592 46.5682 52.521 46.6847C52.4528 46.8011 52.3604 46.8949 52.244 46.9659C52.1303 47.0341 52.0025 47.0682 51.8604 47.0682ZM54.5685 47V38.2727H55.5742V41.4943H55.6594C55.7333 41.3807 55.8356 41.2358 55.9663 41.0597C56.0998 40.8807 56.2901 40.7216 56.5373 40.5824C56.7873 40.4403 57.1254 40.3693 57.5515 40.3693C58.1026 40.3693 58.5884 40.5071 59.0089 40.7827C59.4293 41.0582 59.7575 41.4489 59.9933 41.9545C60.229 42.4602 60.3469 43.0568 60.3469 43.7443C60.3469 44.4375 60.229 45.0384 59.9933 45.5469C59.7575 46.0526 59.4308 46.4446 59.0131 46.723C58.5955 46.9986 58.114 47.1364 57.5685 47.1364C57.1481 47.1364 56.8114 47.0668 56.5586 46.9276C56.3058 46.7855 56.1112 46.625 55.9748 46.446C55.8384 46.2642 55.7333 46.1136 55.6594 45.9943H55.5401V47H54.5685ZM55.5572 43.7273C55.5572 44.2216 55.6296 44.6577 55.7745 45.0355C55.9194 45.4105 56.131 45.7045 56.4094 45.9176C56.6879 46.1278 57.0288 46.233 57.4322 46.233C57.8526 46.233 58.2035 46.1222 58.4847 45.9006C58.7688 45.6761 58.9819 45.375 59.1239 44.9972C59.2688 44.6165 59.3413 44.1932 59.3413 43.7273C59.3413 43.267 59.2702 42.8523 59.1282 42.483C58.989 42.1108 58.7773 41.8168 58.4933 41.6009C58.212 41.3821 57.8583 41.2727 57.4322 41.2727C57.0231 41.2727 56.6793 41.3764 56.4009 41.5838C56.1225 41.7884 55.9123 42.0753 55.7702 42.4446C55.6282 42.8111 55.5572 43.2386 55.5572 43.7273ZM61.8853 47V40.4545H62.8569V41.4432H62.9251C63.0444 41.1193 63.2603 40.8565 63.5728 40.6548C63.8853 40.4531 64.2376 40.3523 64.6296 40.3523C64.7035 40.3523 64.7958 40.3537 64.9066 40.3565C65.0174 40.3594 65.1012 40.3636 65.158 40.3693V41.392C65.1239 41.3835 65.0458 41.3707 64.9237 41.3537C64.8043 41.3338 64.6779 41.3239 64.5444 41.3239C64.2262 41.3239 63.9421 41.3906 63.6921 41.5241C63.445 41.6548 63.2489 41.8366 63.104 42.0696C62.962 42.2997 62.891 42.5625 62.891 42.858V47H61.8853ZM69.0252 37.8636L66.2127 48.3125H65.2923L68.1048 37.8636H69.0252ZM71.223 38.2727V47H70.2173V38.2727H71.223ZM73.065 49.4545V40.4545H74.0366V41.4943H74.1559C74.2298 41.3807 74.332 41.2358 74.4627 41.0597C74.5962 40.8807 74.7866 40.7216 75.0337 40.5824C75.2837 40.4403 75.6218 40.3693 76.0479 40.3693C76.5991 40.3693 77.0849 40.5071 77.5053 40.7827C77.9258 41.0582 78.2539 41.4489 78.4897 41.9545C78.7255 42.4602 78.8434 43.0568 78.8434 43.7443C78.8434 44.4375 78.7255 45.0384 78.4897 45.5469C78.2539 46.0526 77.9272 46.4446 77.5096 46.723C77.092 46.9986 76.6104 47.1364 76.065 47.1364C75.6445 47.1364 75.3079 47.0668 75.055 46.9276C74.8022 46.7855 74.6076 46.625 74.4712 46.446C74.3349 46.2642 74.2298 46.1136 74.1559 45.9943H74.0707V49.4545H73.065ZM74.0536 43.7273C74.0536 44.2216 74.1261 44.6577 74.271 45.0355C74.4158 45.4105 74.6275 45.7045 74.9059 45.9176C75.1843 46.1278 75.5252 46.233 75.9286 46.233C76.3491 46.233 76.6999 46.1222 76.9812 45.9006C77.2653 45.6761 77.4783 45.375 77.6204 44.9972C77.7653 44.6165 77.8377 44.1932 77.8377 43.7273C77.8377 43.267 77.7667 42.8523 77.6246 42.483C77.4854 42.1108 77.2738 41.8168 76.9897 41.6009C76.7085 41.3821 76.3548 41.2727 75.9286 41.2727C75.5195 41.2727 75.1758 41.3764 74.8974 41.5838C74.619 41.7884 74.4087 42.0753 74.2667 42.4446C74.1246 42.8111 74.0536 43.2386 74.0536 43.7273ZM81.69 44.5455V44.4943C81.6957 43.9517 81.7525 43.5199 81.8604 43.1989C81.9684 42.8778 82.1218 42.6179 82.3207 42.419C82.5195 42.2202 82.7582 42.0369 83.0366 41.8693C83.2042 41.767 83.3548 41.6463 83.4883 41.5071C83.6218 41.3651 83.7269 41.2017 83.8036 41.017C83.8832 40.8324 83.9229 40.6278 83.9229 40.4034C83.9229 40.125 83.8576 39.8835 83.7269 39.679C83.5962 39.4744 83.4215 39.3168 83.2028 39.206C82.984 39.0952 82.7411 39.0398 82.4741 39.0398C82.2411 39.0398 82.0167 39.0881 81.8008 39.1847C81.5849 39.2812 81.4045 39.4332 81.2596 39.6406C81.1147 39.848 81.0309 40.1193 81.0082 40.4545H79.9343C79.957 39.9716 80.082 39.5582 80.3093 39.2145C80.5394 38.8707 80.842 38.608 81.217 38.4261C81.5948 38.2443 82.0138 38.1534 82.4741 38.1534C82.9741 38.1534 83.4087 38.2528 83.7781 38.4517C84.1502 38.6506 84.4371 38.9233 84.6388 39.2699C84.8434 39.6165 84.9457 40.0114 84.9457 40.4545C84.9457 40.767 84.8974 41.0497 84.8008 41.3026C84.707 41.5554 84.5707 41.7812 84.3917 41.9801C84.2156 42.179 84.0025 42.3551 83.7525 42.5085C83.5025 42.6648 83.3022 42.8295 83.1516 43.0028C83.0011 43.1733 82.8917 43.3764 82.8235 43.6122C82.7553 43.848 82.7184 44.142 82.7127 44.4943V44.5455H81.69ZM82.2354 47.0682C82.0252 47.0682 81.8448 46.9929 81.6942 46.8423C81.5437 46.6918 81.4684 46.5114 81.4684 46.3011C81.4684 46.0909 81.5437 45.9105 81.6942 45.7599C81.8448 45.6094 82.0252 45.5341 82.2354 45.5341C82.4457 45.5341 82.6261 45.6094 82.7766 45.7599C82.9272 45.9105 83.0025 46.0909 83.0025 46.3011C83.0025 46.4403 82.967 46.5682 82.896 46.6847C82.8278 46.8011 82.7354 46.8949 82.619 46.9659C82.5053 47.0341 82.3775 47.0682 82.2354 47.0682ZM90.5845 44.3239V40.4545H91.5902V47H90.5845V45.892H90.5163C90.3629 46.2244 90.1243 46.5071 89.8004 46.7401C89.4766 46.9702 89.0675 47.0852 88.5732 47.0852C88.1641 47.0852 87.8004 46.9957 87.4822 46.8168C87.1641 46.6349 86.9141 46.3622 86.7322 45.9986C86.5504 45.6321 86.4595 45.1705 86.4595 44.6136V40.4545H87.4652V44.5455C87.4652 45.0227 87.5987 45.4034 87.8658 45.6875C88.1357 45.9716 88.4794 46.1136 88.897 46.1136C89.147 46.1136 89.4013 46.0497 89.6598 45.9219C89.9212 45.794 90.1399 45.598 90.3161 45.3338C90.495 45.0696 90.5845 44.733 90.5845 44.3239ZM96.2788 40.4545V41.3068H92.8867V40.4545H96.2788ZM93.8754 38.8864H94.881V45.125C94.881 45.4091 94.9222 45.6222 95.0046 45.7642C95.0898 45.9034 95.1978 45.9972 95.3285 46.0455C95.462 46.0909 95.6026 46.1136 95.7504 46.1136C95.8612 46.1136 95.9521 46.108 96.0231 46.0966C96.0941 46.0824 96.1509 46.071 96.1935 46.0625L96.3981 46.9659C96.3299 46.9915 96.2347 47.017 96.1126 47.0426C95.9904 47.071 95.8356 47.0852 95.6481 47.0852C95.364 47.0852 95.0856 47.0241 94.8129 46.902C94.543 46.7798 94.3185 46.5938 94.1396 46.3438C93.9634 46.0938 93.8754 45.7784 93.8754 45.3977V38.8864ZM97.7915 47V40.4545H98.7631V41.4773H98.8484C98.9847 41.1278 99.2049 40.8565 99.5089 40.6634C99.8129 40.4673 100.178 40.3693 100.604 40.3693C101.036 40.3693 101.395 40.4673 101.682 40.6634C101.972 40.8565 102.198 41.1278 102.36 41.4773H102.428C102.596 41.1392 102.847 40.8707 103.182 40.6719C103.517 40.4702 103.919 40.3693 104.388 40.3693C104.973 40.3693 105.452 40.5526 105.824 40.919C106.196 41.2827 106.382 41.8494 106.382 42.6193V47H105.377V42.6193C105.377 42.1364 105.245 41.7912 104.98 41.5838C104.716 41.3764 104.405 41.2727 104.047 41.2727C103.587 41.2727 103.23 41.4119 102.978 41.6903C102.725 41.9659 102.598 42.3153 102.598 42.7386V47H101.576V42.517C101.576 42.1449 101.455 41.8452 101.213 41.6179C100.972 41.3878 100.661 41.2727 100.28 41.2727C100.019 41.2727 99.7745 41.3423 99.5472 41.4815C99.3228 41.6207 99.141 41.8139 99.0018 42.0611C98.8654 42.3054 98.7972 42.5881 98.7972 42.9091V47H97.7915ZM112.738 47V47.9375H107.284V47H112.738ZM118.283 41.9205L117.38 42.1761C117.323 42.0256 117.239 41.8793 117.129 41.7372C117.021 41.5923 116.873 41.473 116.685 41.3793C116.498 41.2855 116.258 41.2386 115.965 41.2386C115.565 41.2386 115.231 41.331 114.964 41.5156C114.7 41.6974 114.567 41.929 114.567 42.2102C114.567 42.4602 114.658 42.6577 114.84 42.8026C115.022 42.9474 115.306 43.0682 115.692 43.1648L116.664 43.4034C117.249 43.5455 117.685 43.7628 117.972 44.0554C118.259 44.3452 118.403 44.7187 118.403 45.1761C118.403 45.5511 118.295 45.8864 118.079 46.1818C117.866 46.4773 117.567 46.7102 117.184 46.8807C116.8 47.0511 116.354 47.1364 115.846 47.1364C115.178 47.1364 114.626 46.9915 114.188 46.7017C113.751 46.4119 113.474 45.9886 113.357 45.4318L114.312 45.1932C114.403 45.5455 114.575 45.8097 114.827 45.9858C115.083 46.1619 115.417 46.25 115.829 46.25C116.298 46.25 116.67 46.1506 116.945 45.9517C117.224 45.75 117.363 45.5085 117.363 45.2273C117.363 45 117.283 44.8097 117.124 44.6562C116.965 44.5 116.721 44.3835 116.391 44.3068L115.3 44.0511C114.701 43.9091 114.261 43.6889 113.979 43.3906C113.701 43.0895 113.562 42.7131 113.562 42.2614C113.562 41.892 113.665 41.5653 113.873 41.2812C114.083 40.9972 114.369 40.7741 114.729 40.6122C115.093 40.4503 115.505 40.3693 115.965 40.3693C116.613 40.3693 117.121 40.5114 117.491 40.7955C117.863 41.0795 118.127 41.4545 118.283 41.9205ZM122.576 47.1364C121.985 47.1364 121.466 46.9957 121.02 46.7145C120.577 46.4332 120.23 46.0398 119.98 45.5341C119.733 45.0284 119.61 44.4375 119.61 43.7614C119.61 43.0795 119.733 42.4844 119.98 41.9759C120.23 41.4673 120.577 41.0724 121.02 40.7912C121.466 40.5099 121.985 40.3693 122.576 40.3693C123.167 40.3693 123.684 40.5099 124.127 40.7912C124.573 41.0724 124.919 41.4673 125.167 41.9759C125.417 42.4844 125.542 43.0795 125.542 43.7614C125.542 44.4375 125.417 45.0284 125.167 45.5341C124.919 46.0398 124.573 46.4332 124.127 46.7145C123.684 46.9957 123.167 47.1364 122.576 47.1364ZM122.576 46.233C123.025 46.233 123.394 46.1179 123.684 45.8878C123.973 45.6577 124.188 45.3551 124.327 44.9801C124.466 44.6051 124.536 44.1989 124.536 43.7614C124.536 43.3239 124.466 42.9162 124.327 42.5384C124.188 42.1605 123.973 41.8551 123.684 41.6222C123.394 41.3892 123.025 41.2727 122.576 41.2727C122.127 41.2727 121.757 41.3892 121.468 41.6222C121.178 41.8551 120.963 42.1605 120.824 42.5384C120.685 42.9162 120.615 43.3239 120.615 43.7614C120.615 44.1989 120.685 44.6051 120.824 44.9801C120.963 45.3551 121.178 45.6577 121.468 45.8878C121.757 46.1179 122.127 46.233 122.576 46.233ZM131.202 44.3239V40.4545H132.207V47H131.202V45.892H131.134C130.98 46.2244 130.741 46.5071 130.418 46.7401C130.094 46.9702 129.685 47.0852 129.19 47.0852C128.781 47.0852 128.418 46.9957 128.099 46.8168C127.781 46.6349 127.531 46.3622 127.349 45.9986C127.168 45.6321 127.077 45.1705 127.077 44.6136V40.4545H128.082V44.5455C128.082 45.0227 128.216 45.4034 128.483 45.6875C128.753 45.9716 129.097 46.1136 129.514 46.1136C129.764 46.1136 130.018 46.0497 130.277 45.9219C130.538 45.794 130.757 45.598 130.933 45.3338C131.112 45.0696 131.202 44.733 131.202 44.3239ZM134.049 47V40.4545H135.021V41.4432H135.089C135.208 41.1193 135.424 40.8565 135.737 40.6548C136.049 40.4531 136.402 40.3523 136.794 40.3523C136.868 40.3523 136.96 40.3537 137.071 40.3565C137.181 40.3594 137.265 40.3636 137.322 40.3693V41.392C137.288 41.3835 137.21 41.3707 137.088 41.3537C136.968 41.3338 136.842 41.3239 136.708 41.3239C136.39 41.3239 136.106 41.3906 135.856 41.5241C135.609 41.6548 135.413 41.8366 135.268 42.0696C135.126 42.2997 135.055 42.5625 135.055 42.858V47H134.049ZM140.974 47.1364C140.36 47.1364 139.832 46.9915 139.389 46.7017C138.946 46.4119 138.605 46.0128 138.366 45.5043C138.127 44.9957 138.008 44.4148 138.008 43.7614C138.008 43.0966 138.13 42.5099 138.375 42.0014C138.622 41.4901 138.966 41.0909 139.406 40.804C139.849 40.5142 140.366 40.3693 140.957 40.3693C141.417 40.3693 141.832 40.4545 142.201 40.625C142.571 40.7955 142.873 41.0341 143.109 41.3409C143.345 41.6477 143.491 42.0057 143.548 42.4148H142.542C142.466 42.1165 142.295 41.8523 142.031 41.6222C141.77 41.3892 141.417 41.2727 140.974 41.2727C140.582 41.2727 140.238 41.375 139.943 41.5795C139.65 41.7812 139.422 42.0668 139.257 42.4361C139.095 42.8026 139.014 43.233 139.014 43.7273C139.014 44.233 139.093 44.6733 139.252 45.0483C139.414 45.4233 139.642 45.7145 139.934 45.9219C140.23 46.1293 140.576 46.233 140.974 46.233C141.235 46.233 141.473 46.1875 141.686 46.0966C141.899 46.0057 142.079 45.875 142.227 45.7045C142.375 45.5341 142.48 45.3295 142.542 45.0909H143.548C143.491 45.4773 143.35 45.8253 143.126 46.1349C142.904 46.4418 142.61 46.6861 142.244 46.8679C141.88 47.0469 141.457 47.1364 140.974 47.1364ZM147.762 47.1364C147.132 47.1364 146.588 46.9972 146.13 46.7188C145.676 46.4375 145.325 46.0455 145.078 45.5426C144.833 45.0369 144.711 44.4489 144.711 43.7784C144.711 43.108 144.833 42.517 145.078 42.0057C145.325 41.4915 145.669 41.0909 146.109 40.804C146.552 40.5142 147.069 40.3693 147.66 40.3693C148.001 40.3693 148.338 40.4261 148.67 40.5398C149.002 40.6534 149.305 40.8381 149.578 41.0938C149.85 41.3466 150.068 41.6818 150.23 42.0994C150.392 42.517 150.473 43.0312 150.473 43.642V44.0682H145.427V43.1989H149.45C149.45 42.8295 149.376 42.5 149.228 42.2102C149.083 41.9205 148.876 41.6918 148.606 41.5241C148.339 41.3565 148.024 41.2727 147.66 41.2727C147.26 41.2727 146.913 41.3722 146.62 41.571C146.331 41.767 146.108 42.0227 145.951 42.3381C145.795 42.6534 145.717 42.9915 145.717 43.3523V43.9318C145.717 44.4261 145.802 44.8452 145.973 45.1889C146.146 45.5298 146.386 45.7898 146.693 45.9688C147 46.1449 147.356 46.233 147.762 46.233C148.027 46.233 148.265 46.196 148.478 46.1222C148.694 46.0455 148.88 45.9318 149.037 45.7812C149.193 45.6278 149.314 45.4375 149.399 45.2102L150.37 45.483C150.268 45.8125 150.096 46.1023 149.855 46.3523C149.613 46.5994 149.315 46.7926 148.96 46.9318C148.605 47.0682 148.206 47.1364 147.762 47.1364ZM152.412 42.7898V41.8693H157.662V42.7898H152.412ZM152.412 45.3125V44.392H157.662V45.3125H152.412ZM162.827 40.4545V41.3068H159.299V40.4545H162.827ZM160.356 47V39.5511C160.356 39.1761 160.444 38.8636 160.62 38.6136C160.796 38.3636 161.025 38.1761 161.306 38.0511C161.587 37.9261 161.884 37.8636 162.197 37.8636C162.444 37.8636 162.646 37.8835 162.802 37.9233C162.958 37.9631 163.075 38 163.151 38.0341L162.862 38.9034C162.81 38.8864 162.739 38.8651 162.648 38.8395C162.56 38.8139 162.444 38.8011 162.299 38.8011C161.967 38.8011 161.727 38.8849 161.579 39.0526C161.434 39.2202 161.362 39.4659 161.362 39.7898V47H160.356ZM165.975 47.1534C165.561 47.1534 165.184 47.0753 164.846 46.919C164.508 46.7599 164.24 46.5312 164.041 46.233C163.842 45.9318 163.743 45.5682 163.743 45.142C163.743 44.767 163.816 44.4631 163.964 44.2301C164.112 43.9943 164.309 43.8097 164.556 43.6761C164.804 43.5426 165.076 43.4432 165.375 43.3778C165.676 43.3097 165.978 43.2557 166.282 43.2159C166.68 43.1648 167.002 43.1264 167.25 43.1009C167.5 43.0724 167.681 43.0256 167.795 42.9602C167.912 42.8949 167.97 42.7812 167.97 42.6193V42.5852C167.97 42.1648 167.855 41.8381 167.625 41.6051C167.397 41.3722 167.052 41.2557 166.589 41.2557C166.109 41.2557 165.733 41.3608 165.46 41.571C165.187 41.7812 164.995 42.0057 164.885 42.2443L163.93 41.9034C164.1 41.5057 164.328 41.196 164.612 40.9744C164.899 40.75 165.211 40.5937 165.549 40.5057C165.89 40.4148 166.225 40.3693 166.555 40.3693C166.765 40.3693 167.007 40.3949 167.279 40.446C167.555 40.4943 167.821 40.5952 168.076 40.7486C168.335 40.902 168.549 41.1335 168.72 41.4432C168.89 41.7528 168.975 42.1676 168.975 42.6875V47H167.97V46.1136H167.919C167.85 46.2557 167.737 46.4077 167.578 46.5696C167.419 46.7315 167.207 46.8693 166.943 46.983C166.679 47.0966 166.356 47.1534 165.975 47.1534ZM166.129 46.25C166.527 46.25 166.862 46.1719 167.135 46.0156C167.41 45.8594 167.618 45.6577 167.757 45.4105C167.899 45.1634 167.97 44.9034 167.97 44.6307V43.7102C167.927 43.7614 167.833 43.8082 167.689 43.8509C167.547 43.8906 167.382 43.9261 167.194 43.9574C167.01 43.9858 166.829 44.0114 166.653 44.0341C166.48 44.054 166.339 44.071 166.231 44.0852C165.97 44.1193 165.725 44.1747 165.498 44.2514C165.274 44.3253 165.092 44.4375 164.953 44.5881C164.816 44.7358 164.748 44.9375 164.748 45.1932C164.748 45.5426 164.877 45.8068 165.136 45.9858C165.397 46.1619 165.728 46.25 166.129 46.25ZM173.47 47.1364C172.857 47.1364 172.328 46.9915 171.885 46.7017C171.442 46.4119 171.101 46.0128 170.862 45.5043C170.624 44.9957 170.504 44.4148 170.504 43.7614C170.504 43.0966 170.626 42.5099 170.871 42.0014C171.118 41.4901 171.462 41.0909 171.902 40.804C172.345 40.5142 172.862 40.3693 173.453 40.3693C173.913 40.3693 174.328 40.4545 174.697 40.625C175.067 40.7955 175.369 41.0341 175.605 41.3409C175.841 41.6477 175.987 42.0057 176.044 42.4148H175.038C174.962 42.1165 174.791 41.8523 174.527 41.6222C174.266 41.3892 173.913 41.2727 173.47 41.2727C173.078 41.2727 172.734 41.375 172.439 41.5795C172.146 41.7812 171.918 42.0668 171.753 42.4361C171.591 42.8026 171.51 43.233 171.51 43.7273C171.51 44.233 171.589 44.6733 171.749 45.0483C171.911 45.4233 172.138 45.7145 172.43 45.9219C172.726 46.1293 173.072 46.233 173.47 46.233C173.732 46.233 173.969 46.1875 174.182 46.0966C174.395 46.0057 174.575 45.875 174.723 45.7045C174.871 45.5341 174.976 45.3295 175.038 45.0909H176.044C175.987 45.4773 175.847 45.8253 175.622 46.1349C175.401 46.4418 175.107 46.6861 174.74 46.8679C174.376 47.0469 173.953 47.1364 173.47 47.1364ZM180.259 47.1364C179.628 47.1364 179.084 46.9972 178.626 46.7188C178.172 46.4375 177.821 46.0455 177.574 45.5426C177.33 45.0369 177.207 44.4489 177.207 43.7784C177.207 43.108 177.33 42.517 177.574 42.0057C177.821 41.4915 178.165 41.0909 178.605 40.804C179.048 40.5142 179.565 40.3693 180.156 40.3693C180.497 40.3693 180.834 40.4261 181.166 40.5398C181.499 40.6534 181.801 40.8381 182.074 41.0938C182.347 41.3466 182.564 41.6818 182.726 42.0994C182.888 42.517 182.969 43.0312 182.969 43.642V44.0682H177.923V43.1989H181.946C181.946 42.8295 181.872 42.5 181.724 42.2102C181.58 41.9205 181.372 41.6918 181.102 41.5241C180.835 41.3565 180.52 41.2727 180.156 41.2727C179.756 41.2727 179.409 41.3722 179.116 41.571C178.827 41.767 178.604 42.0227 178.447 42.3381C178.291 42.6534 178.213 42.9915 178.213 43.3523V43.9318C178.213 44.4261 178.298 44.8452 178.469 45.1889C178.642 45.5298 178.882 45.7898 179.189 45.9688C179.496 46.1449 179.852 46.233 180.259 46.233C180.523 46.233 180.761 46.196 180.974 46.1222C181.19 46.0455 181.376 45.9318 181.533 45.7812C181.689 45.6278 181.81 45.4375 181.895 45.2102L182.866 45.483C182.764 45.8125 182.592 46.1023 182.351 46.3523C182.109 46.5994 181.811 46.7926 181.456 46.9318C181.101 47.0682 180.702 47.1364 180.259 47.1364ZM184.635 47V38.2727H185.641V41.4943H185.726C185.8 41.3807 185.902 41.2358 186.033 41.0597C186.166 40.8807 186.357 40.7216 186.604 40.5824C186.854 40.4403 187.192 40.3693 187.618 40.3693C188.169 40.3693 188.655 40.5071 189.075 40.7827C189.496 41.0582 189.824 41.4489 190.06 41.9545C190.295 42.4602 190.413 43.0568 190.413 43.7443C190.413 44.4375 190.295 45.0384 190.06 45.5469C189.824 46.0526 189.497 46.4446 189.08 46.723C188.662 46.9986 188.18 47.1364 187.635 47.1364C187.214 47.1364 186.878 47.0668 186.625 46.9276C186.372 46.7855 186.178 46.625 186.041 46.446C185.905 46.2642 185.8 46.1136 185.726 45.9943H185.607V47H184.635ZM185.624 43.7273C185.624 44.2216 185.696 44.6577 185.841 45.0355C185.986 45.4105 186.197 45.7045 186.476 45.9176C186.754 46.1278 187.095 46.233 187.499 46.233C187.919 46.233 188.27 46.1222 188.551 45.9006C188.835 45.6761 189.048 45.375 189.19 44.9972C189.335 44.6165 189.408 44.1932 189.408 43.7273C189.408 43.267 189.337 42.8523 189.195 42.483C189.055 42.1108 188.844 41.8168 188.56 41.6009C188.278 41.3821 187.925 41.2727 187.499 41.2727C187.089 41.2727 186.746 41.3764 186.467 41.5838C186.189 41.7884 185.979 42.0753 185.837 42.4446C185.695 42.8111 185.624 43.2386 185.624 43.7273ZM194.611 47.1364C194.02 47.1364 193.501 46.9957 193.055 46.7145C192.612 46.4332 192.266 46.0398 192.016 45.5341C191.768 45.0284 191.645 44.4375 191.645 43.7614C191.645 43.0795 191.768 42.4844 192.016 41.9759C192.266 41.4673 192.612 41.0724 193.055 40.7912C193.501 40.5099 194.02 40.3693 194.611 40.3693C195.202 40.3693 195.719 40.5099 196.162 40.7912C196.608 41.0724 196.955 41.4673 197.202 41.9759C197.452 42.4844 197.577 43.0795 197.577 43.7614C197.577 44.4375 197.452 45.0284 197.202 45.5341C196.955 46.0398 196.608 46.4332 196.162 46.7145C195.719 46.9957 195.202 47.1364 194.611 47.1364ZM194.611 46.233C195.06 46.233 195.429 46.1179 195.719 45.8878C196.009 45.6577 196.223 45.3551 196.362 44.9801C196.501 44.6051 196.571 44.1989 196.571 43.7614C196.571 43.3239 196.501 42.9162 196.362 42.5384C196.223 42.1605 196.009 41.8551 195.719 41.6222C195.429 41.3892 195.06 41.2727 194.611 41.2727C194.162 41.2727 193.793 41.3892 193.503 41.6222C193.213 41.8551 192.999 42.1605 192.859 42.5384C192.72 42.9162 192.651 43.3239 192.651 43.7614C192.651 44.1989 192.72 44.6051 192.859 44.9801C192.999 45.3551 193.213 45.6577 193.503 45.8878C193.793 46.1179 194.162 46.233 194.611 46.233ZM201.771 47.1364C201.18 47.1364 200.662 46.9957 200.216 46.7145C199.772 46.4332 199.426 46.0398 199.176 45.5341C198.929 45.0284 198.805 44.4375 198.805 43.7614C198.805 43.0795 198.929 42.4844 199.176 41.9759C199.426 41.4673 199.772 41.0724 200.216 40.7912C200.662 40.5099 201.18 40.3693 201.771 40.3693C202.362 40.3693 202.879 40.5099 203.322 40.7912C203.768 41.0724 204.115 41.4673 204.362 41.9759C204.612 42.4844 204.737 43.0795 204.737 43.7614C204.737 44.4375 204.612 45.0284 204.362 45.5341C204.115 46.0398 203.768 46.4332 203.322 46.7145C202.879 46.9957 202.362 47.1364 201.771 47.1364ZM201.771 46.233C202.22 46.233 202.589 46.1179 202.879 45.8878C203.169 45.6577 203.383 45.3551 203.522 44.9801C203.662 44.6051 203.731 44.1989 203.731 43.7614C203.731 43.3239 203.662 42.9162 203.522 42.5384C203.383 42.1605 203.169 41.8551 202.879 41.6222C202.589 41.3892 202.22 41.2727 201.771 41.2727C201.322 41.2727 200.953 41.3892 200.663 41.6222C200.373 41.8551 200.159 42.1605 200.02 42.5384C199.88 42.9162 199.811 43.3239 199.811 43.7614C199.811 44.1989 199.88 44.6051 200.02 44.9801C200.159 45.3551 200.373 45.6577 200.663 45.8878C200.953 46.1179 201.322 46.233 201.771 46.233ZM207.21 44.6136L207.192 43.3693H207.397L210.261 40.4545H211.505L208.454 43.5398H208.369L207.21 44.6136ZM206.272 47V38.2727H207.278V47H206.272ZM210.431 47L207.874 43.7614L208.59 43.0625L211.71 47H210.431ZM215.271 47.1193C214.697 47.1193 214.203 47.0142 213.788 46.804C213.373 46.5937 213.054 46.3054 212.829 45.9389C212.605 45.5724 212.493 45.1534 212.493 44.6818C212.493 44.3182 212.569 43.9957 212.723 43.7145C212.879 43.4304 213.093 43.1676 213.366 42.9261C213.642 42.6818 213.958 42.4375 214.316 42.1932L215.578 41.2557C215.825 41.0937 216.022 40.9205 216.17 40.7358C216.321 40.5511 216.396 40.3097 216.396 40.0114C216.396 39.7898 216.298 39.5753 216.102 39.3679C215.909 39.1605 215.654 39.0568 215.339 39.0568C215.118 39.0568 214.922 39.1136 214.751 39.2273C214.583 39.3381 214.451 39.4801 214.355 39.6534C214.261 39.8239 214.214 40 214.214 40.1818C214.214 40.3864 214.27 40.5938 214.38 40.804C214.494 41.0114 214.637 41.2244 214.811 41.4432C214.987 41.6591 215.169 41.8807 215.356 42.108L219.362 47H218.152L214.845 43.0114C214.538 42.642 214.26 42.3068 214.01 42.0057C213.76 41.7045 213.561 41.4077 213.413 41.1151C213.265 40.8224 213.191 40.5057 213.191 40.1648C213.191 39.7727 213.278 39.429 213.451 39.1335C213.627 38.8352 213.873 38.6037 214.189 38.4389C214.507 38.2713 214.879 38.1875 215.305 38.1875C215.743 38.1875 216.119 38.2727 216.434 38.4432C216.75 38.6108 216.993 38.8338 217.163 39.1122C217.333 39.3878 217.419 39.6875 217.419 40.0114C217.419 40.429 217.315 40.7912 217.108 41.098C216.9 41.4048 216.618 41.6903 216.26 41.9545L214.521 43.25C214.129 43.5398 213.863 43.821 213.724 44.0938C213.585 44.3665 213.515 44.5625 213.515 44.6818C213.515 44.9545 213.586 45.2088 213.728 45.4446C213.87 45.6804 214.071 45.8707 214.329 46.0156C214.588 46.1605 214.89 46.233 215.237 46.233C215.566 46.233 215.887 46.1634 216.2 46.0241C216.512 45.8821 216.795 45.6776 217.048 45.4105C217.304 45.1435 217.505 44.8224 217.653 44.4474C217.804 44.0724 217.879 43.6506 217.879 43.1818H218.85C218.85 43.7614 218.784 44.2344 218.65 44.6009C218.517 44.9673 218.366 45.2543 218.199 45.4616C218.031 45.669 217.896 45.8239 217.794 45.9261C217.76 45.9687 217.728 46.0114 217.7 46.054C217.672 46.0966 217.64 46.1392 217.606 46.1818C217.325 46.4972 216.97 46.733 216.541 46.8892C216.112 47.0426 215.689 47.1193 215.271 47.1193ZM224.6 44.3239V40.4545H225.606V47H224.6V45.892H224.532C224.379 46.2244 224.14 46.5071 223.816 46.7401C223.492 46.9702 223.083 47.0852 222.589 47.0852C222.18 47.0852 221.816 46.9957 221.498 46.8168C221.18 46.6349 220.93 46.3622 220.748 45.9986C220.566 45.6321 220.475 45.1705 220.475 44.6136V40.4545H221.481V44.5455C221.481 45.0227 221.614 45.4034 221.881 45.6875C222.151 45.9716 222.495 46.1136 222.913 46.1136C223.163 46.1136 223.417 46.0497 223.675 45.9219C223.937 45.794 224.156 45.598 224.332 45.3338C224.511 45.0696 224.6 44.733 224.6 44.3239ZM230.294 40.4545V41.3068H226.902V40.4545H230.294ZM227.891 38.8864H228.897V45.125C228.897 45.4091 228.938 45.6222 229.02 45.7642C229.105 45.9034 229.213 45.9972 229.344 46.0455C229.478 46.0909 229.618 46.1136 229.766 46.1136C229.877 46.1136 229.968 46.108 230.039 46.0966C230.11 46.0824 230.167 46.071 230.209 46.0625L230.414 46.9659C230.346 46.9915 230.25 47.017 230.128 47.0426C230.006 47.071 229.851 47.0852 229.664 47.0852C229.38 47.0852 229.101 47.0241 228.828 46.902C228.559 46.7798 228.334 46.5938 228.155 46.3438C227.979 46.0938 227.891 45.7784 227.891 45.3977V38.8864ZM231.807 47V40.4545H232.779V41.4773H232.864C233 41.1278 233.221 40.8565 233.525 40.6634C233.828 40.4673 234.194 40.3693 234.62 40.3693C235.051 40.3693 235.411 40.4673 235.698 40.6634C235.988 40.8565 236.213 41.1278 236.375 41.4773H236.444C236.611 41.1392 236.863 40.8707 237.198 40.6719C237.533 40.4702 237.935 40.3693 238.404 40.3693C238.989 40.3693 239.468 40.5526 239.84 40.919C240.212 41.2827 240.398 41.8494 240.398 42.6193V47H239.392V42.6193C239.392 42.1364 239.26 41.7912 238.996 41.5838C238.732 41.3764 238.421 41.2727 238.063 41.2727C237.603 41.2727 237.246 41.4119 236.993 41.6903C236.74 41.9659 236.614 42.3153 236.614 42.7386V47H235.591V42.517C235.591 42.1449 235.471 41.8452 235.229 41.6179C234.988 41.3878 234.676 41.2727 234.296 41.2727C234.034 41.2727 233.79 41.3423 233.563 41.4815C233.338 41.6207 233.157 41.8139 233.017 42.0611C232.881 42.3054 232.813 42.5881 232.813 42.9091V47H231.807ZM246.754 47V47.9375H241.299V47H246.754ZM250.322 47.1364C249.708 47.1364 249.18 46.9915 248.737 46.7017C248.293 46.4119 247.952 46.0128 247.714 45.5043C247.475 44.9957 247.356 44.4148 247.356 43.7614C247.356 43.0966 247.478 42.5099 247.722 42.0014C247.969 41.4901 248.313 41.0909 248.754 40.804C249.197 40.5142 249.714 40.3693 250.305 40.3693C250.765 40.3693 251.18 40.4545 251.549 40.625C251.918 40.7955 252.221 41.0341 252.457 41.3409C252.692 41.6477 252.839 42.0057 252.896 42.4148H251.89C251.813 42.1165 251.643 41.8523 251.379 41.6222C251.117 41.3892 250.765 41.2727 250.322 41.2727C249.93 41.2727 249.586 41.375 249.29 41.5795C248.998 41.7812 248.769 42.0668 248.604 42.4361C248.442 42.8026 248.362 43.233 248.362 43.7273C248.362 44.233 248.441 44.6733 248.6 45.0483C248.762 45.4233 248.989 45.7145 249.282 45.9219C249.577 46.1293 249.924 46.233 250.322 46.233C250.583 46.233 250.82 46.1875 251.033 46.0966C251.246 46.0057 251.427 45.875 251.575 45.7045C251.722 45.5341 251.827 45.3295 251.89 45.0909H252.896C252.839 45.4773 252.698 45.8253 252.474 46.1349C252.252 46.4418 251.958 46.6861 251.592 46.8679C251.228 47.0469 250.805 47.1364 250.322 47.1364ZM256.292 47.1534C255.877 47.1534 255.501 47.0753 255.163 46.919C254.825 46.7599 254.556 46.5312 254.357 46.233C254.158 45.9318 254.059 45.5682 254.059 45.142C254.059 44.767 254.133 44.4631 254.281 44.2301C254.428 43.9943 254.626 43.8097 254.873 43.6761C255.12 43.5426 255.393 43.4432 255.691 43.3778C255.992 43.3097 256.295 43.2557 256.599 43.2159C256.996 43.1648 257.319 43.1264 257.566 43.1009C257.816 43.0724 257.998 43.0256 258.112 42.9602C258.228 42.8949 258.286 42.7812 258.286 42.6193V42.5852C258.286 42.1648 258.171 41.8381 257.941 41.6051C257.714 41.3722 257.369 41.2557 256.906 41.2557C256.425 41.2557 256.049 41.3608 255.776 41.571C255.504 41.7812 255.312 42.0057 255.201 42.2443L254.246 41.9034C254.417 41.5057 254.644 41.196 254.928 40.9744C255.215 40.75 255.528 40.5937 255.866 40.5057C256.207 40.4148 256.542 40.3693 256.871 40.3693C257.082 40.3693 257.323 40.3949 257.596 40.446C257.871 40.4943 258.137 40.5952 258.393 40.7486C258.651 40.902 258.866 41.1335 259.036 41.4432C259.207 41.7528 259.292 42.1676 259.292 42.6875V47H258.286V46.1136H258.235C258.167 46.2557 258.053 46.4077 257.894 46.5696C257.735 46.7315 257.523 46.8693 257.259 46.983C256.995 47.0966 256.673 47.1534 256.292 47.1534ZM256.445 46.25C256.843 46.25 257.178 46.1719 257.451 46.0156C257.727 45.8594 257.934 45.6577 258.073 45.4105C258.215 45.1634 258.286 44.9034 258.286 44.6307V43.7102C258.244 43.7614 258.15 43.8082 258.005 43.8509C257.863 43.8906 257.698 43.9261 257.511 43.9574C257.326 43.9858 257.146 44.0114 256.969 44.0341C256.796 44.054 256.656 44.071 256.548 44.0852C256.286 44.1193 256.042 44.1747 255.815 44.2514C255.59 44.3253 255.408 44.4375 255.269 44.5881C255.133 44.7358 255.065 44.9375 255.065 45.1932C255.065 45.5426 255.194 45.8068 255.452 45.9858C255.714 46.1619 256.045 46.25 256.445 46.25ZM261.127 47V40.4545H262.099V41.4773H262.184C262.321 41.1278 262.541 40.8565 262.845 40.6634C263.149 40.4673 263.514 40.3693 263.94 40.3693C264.372 40.3693 264.731 40.4673 265.018 40.6634C265.308 40.8565 265.534 41.1278 265.696 41.4773H265.764C265.931 41.1392 266.183 40.8707 266.518 40.6719C266.853 40.4702 267.255 40.3693 267.724 40.3693C268.309 40.3693 268.788 40.5526 269.16 40.919C269.532 41.2827 269.718 41.8494 269.718 42.6193V47H268.713V42.6193C268.713 42.1364 268.581 41.7912 268.316 41.5838C268.052 41.3764 267.741 41.2727 267.383 41.2727C266.923 41.2727 266.566 41.4119 266.314 41.6903C266.061 41.9659 265.934 42.3153 265.934 42.7386V47H264.912V42.517C264.912 42.1449 264.791 41.8452 264.549 41.6179C264.308 41.3878 263.997 41.2727 263.616 41.2727C263.355 41.2727 263.11 41.3423 262.883 41.4815C262.659 41.6207 262.477 41.8139 262.338 42.0611C262.201 42.3054 262.133 42.5881 262.133 42.9091V47H261.127ZM271.557 49.4545V40.4545H272.529V41.4943H272.648C272.722 41.3807 272.824 41.2358 272.955 41.0597C273.088 40.8807 273.279 40.7216 273.526 40.5824C273.776 40.4403 274.114 40.3693 274.54 40.3693C275.091 40.3693 275.577 40.5071 275.998 40.7827C276.418 41.0582 276.746 41.4489 276.982 41.9545C277.218 42.4602 277.336 43.0568 277.336 43.7443C277.336 44.4375 277.218 45.0384 276.982 45.5469C276.746 46.0526 276.419 46.4446 276.002 46.723C275.584 46.9986 275.103 47.1364 274.557 47.1364C274.137 47.1364 273.8 47.0668 273.547 46.9276C273.294 46.7855 273.1 46.625 272.963 46.446C272.827 46.2642 272.722 46.1136 272.648 45.9943H272.563V49.4545H271.557ZM272.546 43.7273C272.546 44.2216 272.618 44.6577 272.763 45.0355C272.908 45.4105 273.12 45.7045 273.398 45.9176C273.676 46.1278 274.017 46.233 274.421 46.233C274.841 46.233 275.192 46.1222 275.473 45.9006C275.757 45.6761 275.971 45.375 276.113 44.9972C276.257 44.6165 276.33 44.1932 276.33 43.7273C276.33 43.267 276.259 42.8523 276.117 42.483C275.978 42.1108 275.766 41.8168 275.482 41.6009C275.201 41.3821 274.847 41.2727 274.421 41.2727C274.012 41.2727 273.668 41.3764 273.39 41.5838C273.111 41.7884 272.901 42.0753 272.759 42.4446C272.617 42.8111 272.546 43.2386 272.546 43.7273ZM280.796 47.1534C280.381 47.1534 280.005 47.0753 279.667 46.919C279.328 46.7599 279.06 46.5312 278.861 46.233C278.662 45.9318 278.563 45.5682 278.563 45.142C278.563 44.767 278.637 44.4631 278.784 44.2301C278.932 43.9943 279.13 43.8097 279.377 43.6761C279.624 43.5426 279.897 43.4432 280.195 43.3778C280.496 43.3097 280.799 43.2557 281.103 43.2159C281.5 43.1648 281.823 43.1264 282.07 43.1009C282.32 43.0724 282.502 43.0256 282.615 42.9602C282.732 42.8949 282.79 42.7812 282.79 42.6193V42.5852C282.79 42.1648 282.675 41.8381 282.445 41.6051C282.218 41.3722 281.873 41.2557 281.409 41.2557C280.929 41.2557 280.553 41.3608 280.28 41.571C280.007 41.7812 279.816 42.0057 279.705 42.2443L278.75 41.9034C278.921 41.5057 279.148 41.196 279.432 40.9744C279.719 40.75 280.032 40.5937 280.37 40.5057C280.711 40.4148 281.046 40.3693 281.375 40.3693C281.586 40.3693 281.827 40.3949 282.1 40.446C282.375 40.4943 282.641 40.5952 282.897 40.7486C283.155 40.902 283.37 41.1335 283.54 41.4432C283.711 41.7528 283.796 42.1676 283.796 42.6875V47H282.79V46.1136H282.739C282.671 46.2557 282.557 46.4077 282.398 46.5696C282.239 46.7315 282.027 46.8693 281.763 46.983C281.499 47.0966 281.176 47.1534 280.796 47.1534ZM280.949 46.25C281.347 46.25 281.682 46.1719 281.955 46.0156C282.23 45.8594 282.438 45.6577 282.577 45.4105C282.719 45.1634 282.79 44.9034 282.79 44.6307V43.7102C282.748 43.7614 282.654 43.8082 282.509 43.8509C282.367 43.8906 282.202 43.9261 282.015 43.9574C281.83 43.9858 281.65 44.0114 281.473 44.0341C281.3 44.054 281.159 44.071 281.051 44.0852C280.79 44.1193 280.546 44.1747 280.319 44.2514C280.094 44.3253 279.912 44.4375 279.773 44.5881C279.637 44.7358 279.569 44.9375 279.569 45.1932C279.569 45.5426 279.698 45.8068 279.956 45.9858C280.218 46.1619 280.549 46.25 280.949 46.25ZM285.631 47V40.4545H286.637V47H285.631ZM286.143 39.3636C285.947 39.3636 285.778 39.2969 285.636 39.1634C285.496 39.0298 285.427 38.8693 285.427 38.6818C285.427 38.4943 285.496 38.3338 285.636 38.2003C285.778 38.0668 285.947 38 286.143 38C286.339 38 286.506 38.0668 286.646 38.2003C286.788 38.3338 286.859 38.4943 286.859 38.6818C286.859 38.8693 286.788 39.0298 286.646 39.1634C286.506 39.2969 286.339 39.3636 286.143 39.3636ZM291.121 49.5909C290.635 49.5909 290.218 49.5284 289.868 49.4034C289.519 49.2812 289.228 49.1193 288.995 48.9176C288.765 48.7188 288.581 48.5057 288.445 48.2784L289.246 47.7159C289.337 47.8352 289.452 47.9716 289.591 48.125C289.73 48.2812 289.921 48.4162 290.162 48.5298C290.407 48.6463 290.726 48.7045 291.121 48.7045C291.65 48.7045 292.086 48.5767 292.429 48.321C292.773 48.0653 292.945 47.6648 292.945 47.1193V45.7898H292.86C292.786 45.9091 292.681 46.0568 292.544 46.233C292.411 46.4062 292.218 46.5611 291.965 46.6974C291.715 46.831 291.377 46.8977 290.951 46.8977C290.422 46.8977 289.948 46.7727 289.527 46.5227C289.11 46.2727 288.779 45.9091 288.534 45.4318C288.293 44.9545 288.172 44.375 288.172 43.6932C288.172 43.0227 288.29 42.4389 288.526 41.9418C288.762 41.4418 289.09 41.0554 289.51 40.7827C289.931 40.5071 290.417 40.3693 290.968 40.3693C291.394 40.3693 291.732 40.4403 291.982 40.5824C292.235 40.7216 292.428 40.8807 292.561 41.0597C292.698 41.2358 292.803 41.3807 292.877 41.4943H292.979V40.4545H293.951V47.1875C293.951 47.75 293.823 48.2074 293.567 48.5597C293.314 48.9148 292.973 49.1747 292.544 49.3395C292.118 49.5071 291.644 49.5909 291.121 49.5909ZM291.087 45.9943C291.49 45.9943 291.831 45.902 292.11 45.7173C292.388 45.5327 292.6 45.267 292.745 44.9205C292.89 44.5739 292.962 44.1591 292.962 43.6761C292.962 43.2045 292.891 42.7884 292.749 42.4276C292.607 42.0668 292.397 41.7841 292.118 41.5795C291.84 41.375 291.496 41.2727 291.087 41.2727C290.661 41.2727 290.306 41.3807 290.022 41.5966C289.74 41.8125 289.529 42.1023 289.387 42.4659C289.248 42.8295 289.178 43.233 289.178 43.6761C289.178 44.1307 289.249 44.5327 289.391 44.8821C289.536 45.2287 289.749 45.5014 290.03 45.7003C290.314 45.8963 290.667 45.9943 291.087 45.9943ZM296.797 43.0625V47H295.792V40.4545H296.763V41.4773H296.848C297.002 41.1449 297.235 40.8778 297.547 40.6761C297.86 40.4716 298.263 40.3693 298.757 40.3693C299.201 40.3693 299.588 40.4602 299.921 40.642C300.253 40.821 300.512 41.0938 300.696 41.4602C300.881 41.8239 300.973 42.2841 300.973 42.8409V47H299.968V42.9091C299.968 42.3949 299.834 41.9943 299.567 41.7074C299.3 41.4176 298.934 41.2727 298.468 41.2727C298.147 41.2727 297.86 41.3423 297.607 41.4815C297.357 41.6207 297.159 41.8239 297.015 42.0909C296.87 42.358 296.797 42.6818 296.797 43.0625ZM303.22 42.7898V41.8693H308.47V42.7898H303.22ZM303.22 45.3125V44.392H308.47V45.3125H303.22ZM312.647 47.1534C312.233 47.1534 311.856 47.0753 311.518 46.919C311.18 46.7599 310.912 46.5312 310.713 46.233C310.514 45.9318 310.414 45.5682 310.414 45.142C310.414 44.767 310.488 44.4631 310.636 44.2301C310.784 43.9943 310.981 43.8097 311.228 43.6761C311.475 43.5426 311.748 43.4432 312.047 43.3778C312.348 43.3097 312.65 43.2557 312.954 43.2159C313.352 43.1648 313.674 43.1264 313.922 43.1009C314.172 43.0724 314.353 43.0256 314.467 42.9602C314.583 42.8949 314.642 42.7812 314.642 42.6193V42.5852C314.642 42.1648 314.527 41.8381 314.297 41.6051C314.069 41.3722 313.724 41.2557 313.261 41.2557C312.781 41.2557 312.404 41.3608 312.132 41.571C311.859 41.7812 311.667 42.0057 311.556 42.2443L310.602 41.9034C310.772 41.5057 311 41.196 311.284 40.9744C311.571 40.75 311.883 40.5937 312.221 40.5057C312.562 40.4148 312.897 40.3693 313.227 40.3693C313.437 40.3693 313.679 40.3949 313.951 40.446C314.227 40.4943 314.493 40.5952 314.748 40.7486C315.007 40.902 315.221 41.1335 315.392 41.4432C315.562 41.7528 315.647 42.1676 315.647 42.6875V47H314.642V46.1136H314.591C314.522 46.2557 314.409 46.4077 314.25 46.5696C314.091 46.7315 313.879 46.8693 313.615 46.983C313.35 47.0966 313.028 47.1534 312.647 47.1534ZM312.801 46.25C313.199 46.25 313.534 46.1719 313.806 46.0156C314.082 45.8594 314.289 45.6577 314.429 45.4105C314.571 45.1634 314.642 44.9034 314.642 44.6307V43.7102C314.599 43.7614 314.505 43.8082 314.36 43.8509C314.218 43.8906 314.054 43.9261 313.866 43.9574C313.681 43.9858 313.501 44.0114 313.325 44.0341C313.152 44.054 313.011 44.071 312.903 44.0852C312.642 44.1193 312.397 44.1747 312.17 44.2514C311.946 44.3253 311.764 44.4375 311.625 44.5881C311.488 44.7358 311.42 44.9375 311.42 45.1932C311.42 45.5426 311.549 45.8068 311.808 45.9858C312.069 46.1619 312.4 46.25 312.801 46.25ZM317.483 47V40.4545H318.455V41.4773H318.54C318.676 41.1278 318.896 40.8565 319.2 40.6634C319.504 40.4673 319.869 40.3693 320.295 40.3693C320.727 40.3693 321.087 40.4673 321.374 40.6634C321.663 40.8565 321.889 41.1278 322.051 41.4773H322.119C322.287 41.1392 322.538 40.8707 322.874 40.6719C323.209 40.4702 323.611 40.3693 324.08 40.3693C324.665 40.3693 325.143 40.5526 325.516 40.919C325.888 41.2827 326.074 41.8494 326.074 42.6193V47H325.068V42.6193C325.068 42.1364 324.936 41.7912 324.672 41.5838C324.408 41.3764 324.097 41.2727 323.739 41.2727C323.278 41.2727 322.922 41.4119 322.669 41.6903C322.416 41.9659 322.29 42.3153 322.29 42.7386V47H321.267V42.517C321.267 42.1449 321.146 41.8452 320.905 41.6179C320.663 41.3878 320.352 41.2727 319.972 41.2727C319.71 41.2727 319.466 41.3423 319.239 41.4815C319.014 41.6207 318.832 41.8139 318.693 42.0611C318.557 42.3054 318.489 42.5881 318.489 42.9091V47H317.483ZM327.913 49.4545V40.4545H328.884V41.4943H329.004C329.077 41.3807 329.18 41.2358 329.31 41.0597C329.444 40.8807 329.634 40.7216 329.881 40.5824C330.131 40.4403 330.469 40.3693 330.896 40.3693C331.447 40.3693 331.933 40.5071 332.353 40.7827C332.773 41.0582 333.102 41.4489 333.337 41.9545C333.573 42.4602 333.691 43.0568 333.691 43.7443C333.691 44.4375 333.573 45.0384 333.337 45.5469C333.102 46.0526 332.775 46.4446 332.357 46.723C331.94 46.9986 331.458 47.1364 330.913 47.1364C330.492 47.1364 330.156 47.0668 329.903 46.9276C329.65 46.7855 329.455 46.625 329.319 46.446C329.183 46.2642 329.077 46.1136 329.004 45.9943H328.918V49.4545H327.913ZM328.901 43.7273C328.901 44.2216 328.974 44.6577 329.119 45.0355C329.263 45.4105 329.475 45.7045 329.754 45.9176C330.032 46.1278 330.373 46.233 330.776 46.233C331.197 46.233 331.548 46.1222 331.829 45.9006C332.113 45.6761 332.326 45.375 332.468 44.9972C332.613 44.6165 332.685 44.1932 332.685 43.7273C332.685 43.267 332.614 42.8523 332.472 42.483C332.333 42.1108 332.121 41.8168 331.837 41.6009C331.556 41.3821 331.202 41.2727 330.776 41.2727C330.367 41.2727 330.023 41.3764 329.745 41.5838C329.467 41.7884 329.256 42.0753 329.114 42.4446C328.972 42.8111 328.901 43.2386 328.901 43.7273ZM336.231 38.2727V47H335.225V38.2727H336.231ZM340.732 47.1364C340.141 47.1364 339.623 46.9957 339.176 46.7145C338.733 46.4332 338.387 46.0398 338.137 45.5341C337.89 45.0284 337.766 44.4375 337.766 43.7614C337.766 43.0795 337.89 42.4844 338.137 41.9759C338.387 41.4673 338.733 41.0724 339.176 40.7912C339.623 40.5099 340.141 40.3693 340.732 40.3693C341.323 40.3693 341.84 40.5099 342.283 40.7912C342.729 41.0724 343.076 41.4673 343.323 41.9759C343.573 42.4844 343.698 43.0795 343.698 43.7614C343.698 44.4375 343.573 45.0284 343.323 45.5341C343.076 46.0398 342.729 46.4332 342.283 46.7145C341.84 46.9957 341.323 47.1364 340.732 47.1364ZM340.732 46.233C341.181 46.233 341.55 46.1179 341.84 45.8878C342.13 45.6577 342.344 45.3551 342.483 44.9801C342.623 44.6051 342.692 44.1989 342.692 43.7614C342.692 43.3239 342.623 42.9162 342.483 42.5384C342.344 42.1605 342.13 41.8551 341.84 41.6222C341.55 41.3892 341.181 41.2727 340.732 41.2727C340.283 41.2727 339.914 41.3892 339.624 41.6222C339.334 41.8551 339.12 42.1605 338.98 42.5384C338.841 42.9162 338.772 43.3239 338.772 43.7614C338.772 44.1989 338.841 44.6051 338.98 44.9801C339.12 45.3551 339.334 45.6577 339.624 45.8878C339.914 46.1179 340.283 46.233 340.732 46.233ZM347.705 47.1193C347.131 47.1193 346.636 47.0142 346.222 46.804C345.807 46.5937 345.487 46.3054 345.263 45.9389C345.038 45.5724 344.926 45.1534 344.926 44.6818C344.926 44.3182 345.003 43.9957 345.156 43.7145C345.312 43.4304 345.527 43.1676 345.8 42.9261C346.075 42.6818 346.392 42.4375 346.75 42.1932L348.011 41.2557C348.259 41.0937 348.456 40.9205 348.604 40.7358C348.754 40.5511 348.83 40.3097 348.83 40.0114C348.83 39.7898 348.732 39.5753 348.536 39.3679C348.342 39.1605 348.088 39.0568 347.773 39.0568C347.551 39.0568 347.355 39.1136 347.185 39.2273C347.017 39.3381 346.885 39.4801 346.788 39.6534C346.695 39.8239 346.648 40 346.648 40.1818C346.648 40.3864 346.703 40.5938 346.814 40.804C346.928 41.0114 347.071 41.2244 347.244 41.4432C347.42 41.6591 347.602 41.8807 347.79 42.108L351.795 47H350.585L347.278 43.0114C346.972 42.642 346.693 42.3068 346.443 42.0057C346.193 41.7045 345.994 41.4077 345.847 41.1151C345.699 40.8224 345.625 40.5057 345.625 40.1648C345.625 39.7727 345.712 39.429 345.885 39.1335C346.061 38.8352 346.307 38.6037 346.622 38.4389C346.94 38.2713 347.313 38.1875 347.739 38.1875C348.176 38.1875 348.553 38.2727 348.868 38.4432C349.183 38.6108 349.426 38.8338 349.597 39.1122C349.767 39.3878 349.852 39.6875 349.852 40.0114C349.852 40.429 349.749 40.7912 349.541 41.098C349.334 41.4048 349.051 41.6903 348.693 41.9545L346.955 43.25C346.563 43.5398 346.297 43.821 346.158 44.0938C346.018 44.3665 345.949 44.5625 345.949 44.6818C345.949 44.9545 346.02 45.2088 346.162 45.4446C346.304 45.6804 346.504 45.8707 346.763 46.0156C347.021 46.1605 347.324 46.233 347.67 46.233C348 46.233 348.321 46.1634 348.634 46.0241C348.946 45.8821 349.229 45.6776 349.482 45.4105C349.737 45.1435 349.939 44.8224 350.087 44.4474C350.237 44.0724 350.312 43.6506 350.312 43.1818H351.284C351.284 43.7614 351.217 44.2344 351.084 44.6009C350.95 44.9673 350.8 45.2543 350.632 45.4616C350.464 45.669 350.33 45.8239 350.227 45.9261C350.193 45.9687 350.162 46.0114 350.134 46.054C350.105 46.0966 350.074 46.1392 350.04 46.1818C349.759 46.4972 349.403 46.733 348.974 46.8892C348.545 47.0426 348.122 47.1193 347.705 47.1193ZM357.034 44.3239V40.4545H358.039V47H357.034V45.892H356.966C356.812 46.2244 356.574 46.5071 356.25 46.7401C355.926 46.9702 355.517 47.0852 355.022 47.0852C354.613 47.0852 354.25 46.9957 353.931 46.8168C353.613 46.6349 353.363 46.3622 353.181 45.9986C353 45.6321 352.909 45.1705 352.909 44.6136V40.4545H353.914V44.5455C353.914 45.0227 354.048 45.4034 354.315 45.6875C354.585 45.9716 354.929 46.1136 355.346 46.1136C355.596 46.1136 355.85 46.0497 356.109 45.9219C356.37 45.794 356.589 45.598 356.765 45.3338C356.944 45.0696 357.034 44.733 357.034 44.3239ZM362.728 40.4545V41.3068H359.336V40.4545H362.728ZM360.325 38.8864H361.33V45.125C361.33 45.4091 361.371 45.6222 361.454 45.7642C361.539 45.9034 361.647 45.9972 361.778 46.0455C361.911 46.0909 362.052 46.1136 362.2 46.1136C362.31 46.1136 362.401 46.108 362.472 46.0966C362.543 46.0824 362.6 46.071 362.643 46.0625L362.847 46.9659C362.779 46.9915 362.684 47.017 362.562 47.0426C362.44 47.071 362.285 47.0852 362.097 47.0852C361.813 47.0852 361.535 47.0241 361.262 46.902C360.992 46.7798 360.768 46.5938 360.589 46.3438C360.413 46.0938 360.325 45.7784 360.325 45.3977V38.8864ZM364.241 47V40.4545H365.212V41.4773H365.298C365.434 41.1278 365.654 40.8565 365.958 40.6634C366.262 40.4673 366.627 40.3693 367.053 40.3693C367.485 40.3693 367.844 40.4673 368.131 40.6634C368.421 40.8565 368.647 41.1278 368.809 41.4773H368.877C369.045 41.1392 369.296 40.8707 369.631 40.6719C369.967 40.4702 370.369 40.3693 370.837 40.3693C371.423 40.3693 371.901 40.5526 372.273 40.919C372.646 41.2827 372.832 41.8494 372.832 42.6193V47H371.826V42.6193C371.826 42.1364 371.694 41.7912 371.43 41.5838C371.165 41.3764 370.854 41.2727 370.496 41.2727C370.036 41.2727 369.68 41.4119 369.427 41.6903C369.174 41.9659 369.048 42.3153 369.048 42.7386V47H368.025V42.517C368.025 42.1449 367.904 41.8452 367.663 41.6179C367.421 41.3878 367.11 41.2727 366.729 41.2727C366.468 41.2727 366.224 41.3423 365.996 41.4815C365.772 41.6207 365.59 41.8139 365.451 42.0611C365.315 42.3054 365.246 42.5881 365.246 42.9091V47H364.241ZM375.403 47.0682C375.193 47.0682 375.013 46.9929 374.862 46.8423C374.712 46.6918 374.636 46.5114 374.636 46.3011C374.636 46.0909 374.712 45.9105 374.862 45.7599C375.013 45.6094 375.193 45.5341 375.403 45.5341C375.614 45.5341 375.794 45.6094 375.945 45.7599C376.095 45.9105 376.17 46.0909 376.17 46.3011C376.17 46.4403 376.135 46.5682 376.064 46.6847C375.996 46.8011 375.903 46.8949 375.787 46.9659C375.673 47.0341 375.545 47.0682 375.403 47.0682ZM378.708 47.0682C378.498 47.0682 378.317 46.9929 378.167 46.8423C378.016 46.6918 377.941 46.5114 377.941 46.3011C377.941 46.0909 378.016 45.9105 378.167 45.7599C378.317 45.6094 378.498 45.5341 378.708 45.5341C378.918 45.5341 379.099 45.6094 379.249 45.7599C379.4 45.9105 379.475 46.0909 379.475 46.3011C379.475 46.4403 379.44 46.5682 379.369 46.6847C379.3 46.8011 379.208 46.8949 379.092 46.9659C378.978 47.0341 378.85 47.0682 378.708 47.0682ZM382.013 47.0682C381.803 47.0682 381.622 46.9929 381.472 46.8423C381.321 46.6918 381.246 46.5114 381.246 46.3011C381.246 46.0909 381.321 45.9105 381.472 45.7599C381.622 45.6094 381.803 45.5341 382.013 45.5341C382.223 45.5341 382.403 45.6094 382.554 45.7599C382.705 45.9105 382.78 46.0909 382.78 46.3011C382.78 46.4403 382.744 46.5682 382.673 46.6847C382.605 46.8011 382.513 46.8949 382.396 46.9659C382.283 47.0341 382.155 47.0682 382.013 47.0682Z" fill="black"/>
<path d="M199.646 143.354C199.842 143.549 200.158 143.549 200.354 143.354L203.536 140.172C203.731 139.976 203.731 139.66 203.536 139.464C203.34 139.269 203.024 139.269 202.828 139.464L200 142.293L197.172 139.464C196.976 139.269 196.66 139.269 196.464 139.464C196.269 139.66 196.269 139.976 196.464 140.172L199.646 143.354ZM199.5 70V143H200.5V70H199.5Z" fill="black"/>
</svg>
